<?xml version="1.0" encoding="utf-8"?>
<!-- Generator: Adobe Illustrator 25.0.0, SVG Export Plug-In . SVG Version: 6.00 Build 0)  -->
<svg version="1.1" id="图层_1" xmlns="http://www.w3.org/2000/svg" xmlns:xlink="http://www.w3.org/1999/xlink" x="0px" y="0px"
	 viewBox="0 0 200 200" style="enable-background:new 0 0 200 200;" xml:space="preserve">
<style type="text/css">
	.st0{fill:url(#SVGID_1_);}
	.st1{fill:url(#SVGID_2_);}
	.st2{fill:url(#SVGID_3_);}
	.st3{fill:#EAADCC;}
	.st4{fill:#FFFFFF;}
	.st5{fill:none;stroke:#000000;stroke-width:3;stroke-miterlimit:10;}
</style>
<linearGradient id="SVGID_1_" gradientUnits="userSpaceOnUse" x1="179.124" y1="190.9554" x2="61.6666" y2="50.9751">
	<stop  offset="0" style="stop-color:#F47634"/>
	<stop  offset="1" style="stop-color:#FDC730"/>
</linearGradient>
<path class="st0" d="M70.4,44.2c0,0-26.5,14-23.3,55.8s33.1,114.3,123.1,95.5c14.2-3.1,15.9-17.5,10.7-24.3s-13.8-47.5-12-66.5
	C172.8,79.4,143.9,11.1,70.4,44.2z"/>
<linearGradient id="SVGID_2_" gradientUnits="userSpaceOnUse" x1="87.2609" y1="28.1692" x2="142.6304" y2="28.1692">
	<stop  offset="0" style="stop-color:#51B55C"/>
	<stop  offset="1" style="stop-color:#0AB328"/>
</linearGradient>
<path class="st1" d="M87.3,36.7c0,0,5.4-33.8,55.4-17.3c-12.7,6.9-20.7,15.5-24.3,17.3c0,0-7.5,4.9-15.5,4.8
	C95,41.3,88.8,40,88.8,40s21.4-17.6,33.8-18.8C117.6,21.7,99.1,24.8,87.3,36.7z"/>
<linearGradient id="SVGID_3_" gradientUnits="userSpaceOnUse" x1="77.6533" y1="44.7055" x2="16.2291" y2="-6.8355">
	<stop  offset="0" style="stop-color:#51B55C"/>
	<stop  offset="1" style="stop-color:#0AB328"/>
</linearGradient>
<path class="st2" d="M33.5,12.2c0,0,24.6-7,51.5,20.8c-0.1-3.6-9.6-49.9-83-22.9c15.7,4.7,33.8,22.3,37.2,24.1
	c3.3,1.8,15.7,8,44,3.9C75.1,26.6,57.3,16.9,33.5,12.2z"/>
<ellipse class="st3" cx="75.2" cy="111.2" rx="10" ry="4.8"/>
<ellipse class="st3" cx="148.9" cy="109.1" rx="10" ry="5.1"/>
<circle class="st4" cx="80.7" cy="98" r="12.2"/>
<circle class="st4" cx="141.4" cy="96.4" r="12.4"/>
<circle cx="80.5" cy="98" r="8"/>
<circle cx="141.5" cy="96.3" r="8"/>
<circle class="st4" cx="77.3" cy="96.5" r="3.3"/>
<circle class="st4" cx="138.2" cy="95.2" r="3.4"/>
<path class="st5" d="M100,108.1c0,0,9,11.9,20.5,0.5"/>
</svg>
